<mxfile host="app.diagrams.net" modified="2022-01-23T10:35:19.046Z" agent="5.0 (Windows NT 10.0; WOW64) AppleWebKit/537.36 (KHTML, like Gecko) Chrome/77.0.3865.120 Safari/537.36 Core/1.77.87.400 QQBrowser/10.9.4613.400" etag="iqMR1BEZi-jNU8GBSTLm" version="16.4.5" type="github">
  <diagram id="XOzWBMPgggaq78M5nGRV" name="Page-1">
    <mxGraphModel dx="1788" dy="1720" grid="1" gridSize="10" guides="1" tooltips="1" connect="1" arrows="1" fold="1" page="1" pageScale="1" pageWidth="827" pageHeight="1169" math="0" shadow="0">
      <root>
        <mxCell id="0" />
        <mxCell id="1" parent="0" />
        <mxCell id="I2U9jfFeghH5d3G4aHFH-1" value="&lt;pre style=&quot;background-color: #2b2b2b ; color: #a9b7c6 ; font-family: &amp;#34;droid sans mono&amp;#34; ; font-size: 10.5pt&quot;&gt;&lt;pre style=&quot;font-family: &amp;#34;droid sans mono&amp;#34; ; font-size: 10.5pt&quot;&gt;IStateHandler&lt;/pre&gt;&lt;pre style=&quot;font-family: &amp;#34;droid sans mono&amp;#34; ; font-size: 10.5pt&quot;&gt;状态处理接口&lt;/pre&gt;&lt;/pre&gt;" style="rounded=0;whiteSpace=wrap;html=1;" parent="1" vertex="1">
          <mxGeometry x="590" width="120" height="60" as="geometry" />
        </mxCell>
        <mxCell id="I2U9jfFeghH5d3G4aHFH-8" value="继承" style="edgeStyle=orthogonalEdgeStyle;rounded=0;orthogonalLoop=1;jettySize=auto;html=1;exitX=0.5;exitY=1;exitDx=0;exitDy=0;entryX=0.5;entryY=0;entryDx=0;entryDy=0;fontSize=16;endArrow=open;endFill=0;" parent="1" source="I2U9jfFeghH5d3G4aHFH-2" target="I2U9jfFeghH5d3G4aHFH-5" edge="1">
          <mxGeometry relative="1" as="geometry" />
        </mxCell>
        <mxCell id="I2U9jfFeghH5d3G4aHFH-21" style="edgeStyle=orthogonalEdgeStyle;rounded=0;orthogonalLoop=1;jettySize=auto;html=1;entryX=0;entryY=0.5;entryDx=0;entryDy=0;fontSize=16;fontColor=#FFFFFF;endArrow=open;endFill=0;" parent="1" source="I2U9jfFeghH5d3G4aHFH-2" target="I2U9jfFeghH5d3G4aHFH-1" edge="1">
          <mxGeometry relative="1" as="geometry" />
        </mxCell>
        <mxCell id="I2U9jfFeghH5d3G4aHFH-2" value="&lt;pre style=&quot;background-color: #2b2b2b ; color: #a9b7c6 ; font-family: &amp;#34;droid sans mono&amp;#34; ; font-size: 10.5pt&quot;&gt;&lt;pre style=&quot;font-family: &amp;#34;droid sans mono&amp;#34; ; font-size: 10.5pt&quot;&gt;&lt;pre style=&quot;font-family: &amp;#34;droid sans mono&amp;#34; ; font-size: 10.5pt&quot;&gt;StateHandlerImpl&lt;/pre&gt;&lt;pre style=&quot;font-family: &amp;#34;droid sans mono&amp;#34; ; font-size: 10.5pt&quot;&gt;状态处理服务&lt;/pre&gt;&lt;/pre&gt;&lt;/pre&gt;" style="rounded=0;whiteSpace=wrap;html=1;" parent="1" vertex="1">
          <mxGeometry x="349" width="126" height="60" as="geometry" />
        </mxCell>
        <mxCell id="I2U9jfFeghH5d3G4aHFH-5" value="&lt;pre style=&quot;background-color: #2b2b2b ; color: #a9b7c6 ; font-family: &amp;#34;droid sans mono&amp;#34; ; font-size: 10.5pt&quot;&gt;&lt;pre style=&quot;font-family: &amp;#34;droid sans mono&amp;#34; ; font-size: 10.5pt&quot;&gt;IStateHandler&lt;/pre&gt;&lt;pre style=&quot;font-family: &amp;#34;droid sans mono&amp;#34; ; font-size: 10.5pt&quot;&gt;状态流转配置&lt;/pre&gt;&lt;/pre&gt;" style="rounded=0;whiteSpace=wrap;html=1;" parent="1" vertex="1">
          <mxGeometry x="349" y="100" width="120" height="60" as="geometry" />
        </mxCell>
        <mxCell id="I2U9jfFeghH5d3G4aHFH-7" value="" style="edgeStyle=orthogonalEdgeStyle;rounded=0;orthogonalLoop=1;jettySize=auto;html=1;fontSize=14;endArrow=open;endFill=0;" parent="1" source="I2U9jfFeghH5d3G4aHFH-6" target="I2U9jfFeghH5d3G4aHFH-2" edge="1">
          <mxGeometry relative="1" as="geometry" />
        </mxCell>
        <mxCell id="I2U9jfFeghH5d3G4aHFH-6" value="入口" style="ellipse;whiteSpace=wrap;html=1;aspect=fixed;fontSize=14;" parent="1" vertex="1">
          <mxGeometry x="220" y="5" width="50" height="50" as="geometry" />
        </mxCell>
        <mxCell id="I2U9jfFeghH5d3G4aHFH-22" style="edgeStyle=orthogonalEdgeStyle;rounded=0;orthogonalLoop=1;jettySize=auto;html=1;entryX=0;entryY=0.5;entryDx=0;entryDy=0;fontSize=16;fontColor=#FFFFFF;endArrow=open;endFill=0;exitX=0.655;exitY=0.015;exitDx=0;exitDy=0;exitPerimeter=0;" parent="1" source="I2U9jfFeghH5d3G4aHFH-9" target="I2U9jfFeghH5d3G4aHFH-19" edge="1">
          <mxGeometry relative="1" as="geometry" />
        </mxCell>
        <mxCell id="I2U9jfFeghH5d3G4aHFH-23" value="继承" style="edgeLabel;html=1;align=center;verticalAlign=middle;resizable=0;points=[];fontSize=16;fontColor=#191919;" parent="I2U9jfFeghH5d3G4aHFH-22" vertex="1" connectable="0">
          <mxGeometry x="-0.7209" relative="1" as="geometry">
            <mxPoint as="offset" />
          </mxGeometry>
        </mxCell>
        <mxCell id="I2U9jfFeghH5d3G4aHFH-9" value="&lt;pre style=&quot;background-color: rgb(43 , 43 , 43) ; font-family: &amp;#34;droid sans mono&amp;#34; ; font-size: 10.5pt&quot;&gt;&lt;pre style=&quot;font-family: &amp;#34;droid sans mono&amp;#34; ; font-size: 10.5pt&quot;&gt;&lt;pre style=&quot;color: rgb(169 , 183 , 198) ; font-family: &amp;#34;droid sans mono&amp;#34; ; font-size: 10.5pt&quot;&gt;ArraignmentState&lt;/pre&gt;&lt;pre style=&quot;color: rgb(169 , 183 , 198) ; font-family: &amp;#34;droid sans mono&amp;#34; ; font-size: 10.5pt&quot;&gt;提审状态&lt;/pre&gt;&lt;/pre&gt;&lt;/pre&gt;" style="rounded=0;whiteSpace=wrap;html=1;" parent="1" vertex="1">
          <mxGeometry x="-60" y="355" width="120" height="50" as="geometry" />
        </mxCell>
        <mxCell id="I2U9jfFeghH5d3G4aHFH-24" value="继承" style="edgeStyle=orthogonalEdgeStyle;rounded=0;orthogonalLoop=1;jettySize=auto;html=1;entryX=0;entryY=0.75;entryDx=0;entryDy=0;fontSize=16;fontColor=#191919;endArrow=open;endFill=0;exitX=0.5;exitY=0;exitDx=0;exitDy=0;" parent="1" source="I2U9jfFeghH5d3G4aHFH-10" target="I2U9jfFeghH5d3G4aHFH-19" edge="1">
          <mxGeometry relative="1" as="geometry" />
        </mxCell>
        <mxCell id="I2U9jfFeghH5d3G4aHFH-10" value="&lt;pre style=&quot;background-color: rgb(43 , 43 , 43) ; font-family: &amp;#34;droid sans mono&amp;#34; ; font-size: 10.5pt&quot;&gt;&lt;pre style=&quot;font-family: &amp;#34;droid sans mono&amp;#34; ; font-size: 10.5pt&quot;&gt;&lt;pre style=&quot;font-family: &amp;#34;droid sans mono&amp;#34; ; font-size: 10.5pt&quot;&gt;CloseState&lt;/pre&gt;&lt;pre style=&quot;font-family: &amp;#34;droid sans mono&amp;#34; ; font-size: 10.5pt&quot;&gt;关闭状态&lt;/pre&gt;&lt;/pre&gt;&lt;/pre&gt;" style="rounded=0;whiteSpace=wrap;html=1;fontColor=#FFFFFF;" parent="1" vertex="1">
          <mxGeometry x="130" y="360" width="80" height="50" as="geometry" />
        </mxCell>
        <mxCell id="I2U9jfFeghH5d3G4aHFH-25" value="继承" style="edgeStyle=orthogonalEdgeStyle;rounded=0;orthogonalLoop=1;jettySize=auto;html=1;exitX=0.5;exitY=0;exitDx=0;exitDy=0;entryX=0.071;entryY=1.119;entryDx=0;entryDy=0;entryPerimeter=0;fontSize=16;fontColor=#191919;endArrow=open;endFill=0;" parent="1" source="I2U9jfFeghH5d3G4aHFH-11" target="I2U9jfFeghH5d3G4aHFH-19" edge="1">
          <mxGeometry relative="1" as="geometry" />
        </mxCell>
        <mxCell id="I2U9jfFeghH5d3G4aHFH-11" value="&lt;pre style=&quot;background-color: rgb(43 , 43 , 43) ; font-family: &amp;#34;droid sans mono&amp;#34; ; font-size: 10.5pt&quot;&gt;&lt;pre style=&quot;color: rgb(169 , 183 , 198) ; font-family: &amp;#34;droid sans mono&amp;#34; ; font-size: 10.5pt&quot;&gt;&lt;pre style=&quot;font-family: &amp;#34;droid sans mono&amp;#34; ; font-size: 10.5pt&quot;&gt;DoingState&lt;/pre&gt;&lt;pre style=&quot;font-family: &amp;#34;droid sans mono&amp;#34; ; font-size: 10.5pt&quot;&gt;运行中状态&lt;/pre&gt;&lt;/pre&gt;&lt;/pre&gt;" style="rounded=0;whiteSpace=wrap;html=1;" parent="1" vertex="1">
          <mxGeometry x="250" y="357.5" width="90" height="50" as="geometry" />
        </mxCell>
        <mxCell id="I2U9jfFeghH5d3G4aHFH-26" value="继承" style="edgeStyle=orthogonalEdgeStyle;rounded=0;orthogonalLoop=1;jettySize=auto;html=1;entryX=0.585;entryY=1.025;entryDx=0;entryDy=0;entryPerimeter=0;fontSize=16;fontColor=#191919;endArrow=open;endFill=0;" parent="1" source="I2U9jfFeghH5d3G4aHFH-12" target="I2U9jfFeghH5d3G4aHFH-19" edge="1">
          <mxGeometry relative="1" as="geometry" />
        </mxCell>
        <mxCell id="I2U9jfFeghH5d3G4aHFH-12" value="&lt;pre style=&quot;background-color: #2b2b2b ; color: #a9b7c6 ; font-family: &amp;#34;droid sans mono&amp;#34; ; font-size: 10.5pt&quot;&gt;&lt;pre style=&quot;font-family: &amp;#34;droid sans mono&amp;#34; ; font-size: 10.5pt&quot;&gt;&lt;pre style=&quot;font-family: &amp;#34;droid sans mono&amp;#34; ; font-size: 10.5pt&quot;&gt;EditingState&lt;/pre&gt;&lt;/pre&gt;&lt;pre style=&quot;font-family: &amp;#34;droid sans mono&amp;#34; ; font-size: 10.5pt&quot;&gt;编辑状态&lt;/pre&gt;&lt;/pre&gt;" style="rounded=0;whiteSpace=wrap;html=1;fillColor=#FFFFFF;" parent="1" vertex="1">
          <mxGeometry x="395" y="350" width="80" height="55" as="geometry" />
        </mxCell>
        <mxCell id="I2U9jfFeghH5d3G4aHFH-27" value="继承" style="edgeStyle=orthogonalEdgeStyle;rounded=0;orthogonalLoop=1;jettySize=auto;html=1;entryX=1;entryY=0.5;entryDx=0;entryDy=0;fontSize=16;fontColor=#191919;endArrow=open;endFill=0;" parent="1" source="I2U9jfFeghH5d3G4aHFH-13" target="I2U9jfFeghH5d3G4aHFH-19" edge="1">
          <mxGeometry relative="1" as="geometry">
            <Array as="points">
              <mxPoint x="560" y="270" />
              <mxPoint x="469" y="270" />
            </Array>
          </mxGeometry>
        </mxCell>
        <mxCell id="I2U9jfFeghH5d3G4aHFH-13" value="&lt;pre style=&quot;background-color: #2b2b2b ; color: #a9b7c6 ; font-family: &amp;#34;droid sans mono&amp;#34; ; font-size: 10.5pt&quot;&gt;&lt;pre style=&quot;font-family: &amp;#34;droid sans mono&amp;#34; ; font-size: 10.5pt&quot;&gt;&lt;pre style=&quot;font-family: &amp;#34;droid sans mono&amp;#34; ; font-size: 10.5pt&quot;&gt;&lt;pre style=&quot;font-family: &amp;#34;droid sans mono&amp;#34; ; font-size: 10.5pt&quot;&gt;OpenState&lt;/pre&gt;&lt;/pre&gt;&lt;/pre&gt;&lt;pre style=&quot;font-family: &amp;#34;droid sans mono&amp;#34; ; font-size: 10.5pt&quot;&gt;活动开启状态&lt;/pre&gt;&lt;/pre&gt;" style="rounded=0;whiteSpace=wrap;html=1;fillColor=#FFFFFF;" parent="1" vertex="1">
          <mxGeometry x="520" y="355" width="80" height="55" as="geometry" />
        </mxCell>
        <mxCell id="I2U9jfFeghH5d3G4aHFH-28" value="继承" style="edgeStyle=orthogonalEdgeStyle;rounded=0;orthogonalLoop=1;jettySize=auto;html=1;entryX=1;entryY=0.25;entryDx=0;entryDy=0;fontSize=16;fontColor=#191919;endArrow=open;endFill=0;" parent="1" source="I2U9jfFeghH5d3G4aHFH-14" target="I2U9jfFeghH5d3G4aHFH-19" edge="1">
          <mxGeometry relative="1" as="geometry">
            <Array as="points">
              <mxPoint x="700" y="255" />
              <mxPoint x="469" y="255" />
            </Array>
          </mxGeometry>
        </mxCell>
        <mxCell id="I2U9jfFeghH5d3G4aHFH-14" value="&lt;pre style=&quot;background-color: #2b2b2b ; color: #a9b7c6 ; font-family: &amp;#34;droid sans mono&amp;#34; ; font-size: 10.5pt&quot;&gt;&lt;pre style=&quot;font-family: &amp;#34;droid sans mono&amp;#34; ; font-size: 10.5pt&quot;&gt;&lt;pre style=&quot;font-family: &amp;#34;droid sans mono&amp;#34; ; font-size: 10.5pt&quot;&gt;&lt;pre style=&quot;font-family: &amp;#34;droid sans mono&amp;#34; ; font-size: 10.5pt&quot;&gt;&lt;pre style=&quot;font-family: &amp;#34;droid sans mono&amp;#34; ; font-size: 10.5pt&quot;&gt;PassState&lt;/pre&gt;&lt;/pre&gt;&lt;/pre&gt;&lt;/pre&gt;&lt;pre style=&quot;font-family: &amp;#34;droid sans mono&amp;#34; ; font-size: 10.5pt&quot;&gt;审核通过&lt;/pre&gt;&lt;/pre&gt;" style="rounded=0;whiteSpace=wrap;html=1;fillColor=#FFFFFF;" parent="1" vertex="1">
          <mxGeometry x="660" y="355" width="80" height="55" as="geometry" />
        </mxCell>
        <mxCell id="I2U9jfFeghH5d3G4aHFH-29" value="继承" style="edgeStyle=orthogonalEdgeStyle;rounded=0;orthogonalLoop=1;jettySize=auto;html=1;entryX=1;entryY=0.25;entryDx=0;entryDy=0;fontSize=16;fontColor=#191919;endArrow=open;endFill=0;" parent="1" source="I2U9jfFeghH5d3G4aHFH-15" target="I2U9jfFeghH5d3G4aHFH-19" edge="1">
          <mxGeometry relative="1" as="geometry">
            <Array as="points">
              <mxPoint x="830" y="243" />
            </Array>
          </mxGeometry>
        </mxCell>
        <mxCell id="I2U9jfFeghH5d3G4aHFH-15" value="&lt;pre style=&quot;background-color: #2b2b2b ; color: #a9b7c6 ; font-family: &amp;#34;droid sans mono&amp;#34; ; font-size: 10.5pt&quot;&gt;&lt;pre style=&quot;font-family: &amp;#34;droid sans mono&amp;#34; ; font-size: 10.5pt&quot;&gt;&lt;pre style=&quot;font-family: &amp;#34;droid sans mono&amp;#34; ; font-size: 10.5pt&quot;&gt;&lt;pre style=&quot;font-family: &amp;#34;droid sans mono&amp;#34; ; font-size: 10.5pt&quot;&gt;&lt;pre style=&quot;font-family: &amp;#34;droid sans mono&amp;#34; ; font-size: 10.5pt&quot;&gt;&lt;pre style=&quot;font-family: &amp;#34;droid sans mono&amp;#34; ; font-size: 10.5pt&quot;&gt;RefuseState&lt;/pre&gt;&lt;/pre&gt;&lt;/pre&gt;&lt;/pre&gt;&lt;/pre&gt;&lt;pre style=&quot;font-family: &amp;#34;droid sans mono&amp;#34; ; font-size: 10.5pt&quot;&gt;审核拒绝&lt;/pre&gt;&lt;/pre&gt;" style="rounded=0;whiteSpace=wrap;html=1;fillColor=#FFFFFF;" parent="1" vertex="1">
          <mxGeometry x="790" y="355" width="80" height="55" as="geometry" />
        </mxCell>
        <mxCell id="I2U9jfFeghH5d3G4aHFH-16" value="" style="shape=singleArrow;direction=south;whiteSpace=wrap;html=1;fontSize=16;fontColor=#FFFFFF;fillColor=#FFFFFF;" parent="1" vertex="1">
          <mxGeometry x="389" y="170" width="50" height="50" as="geometry" />
        </mxCell>
        <mxCell id="I2U9jfFeghH5d3G4aHFH-19" value="&lt;pre style=&quot;background-color: #2b2b2b ; color: #a9b7c6 ; font-family: &amp;#34;droid sans mono&amp;#34; ; font-size: 10.5pt&quot;&gt;&lt;pre style=&quot;font-family: &amp;#34;droid sans mono&amp;#34; ; font-size: 10.5pt&quot;&gt;&lt;pre style=&quot;font-family: &amp;#34;droid sans mono&amp;#34; ; font-size: 10.5pt&quot;&gt;&lt;pre style=&quot;font-family: &amp;#34;droid sans mono&amp;#34; ; font-size: 10.5pt&quot;&gt;&lt;pre style=&quot;font-family: &amp;#34;droid sans mono&amp;#34; ; font-size: 10.5pt&quot;&gt;AbstractState&lt;/pre&gt;&lt;/pre&gt;&lt;/pre&gt;&lt;/pre&gt;&lt;pre style=&quot;font-family: &amp;#34;droid sans mono&amp;#34; ; font-size: 10.5pt&quot;&gt;活动状态抽象类&lt;/pre&gt;&lt;/pre&gt;" style="rounded=0;whiteSpace=wrap;html=1;fillColor=#FFFFFF;" parent="1" vertex="1">
          <mxGeometry x="359" y="230" width="110" height="50" as="geometry" />
        </mxCell>
        <mxCell id="I2U9jfFeghH5d3G4aHFH-32" value="&lt;pre style=&quot;background-color: #2b2b2b ; color: #a9b7c6 ; font-family: &amp;#34;droid sans mono&amp;#34; ; font-size: 10.5pt&quot;&gt;Map&amp;lt;Enum&amp;lt;Constants.ActivityState&amp;gt;&lt;span style=&quot;color: #cc7832&quot;&gt;, &lt;/span&gt;AbstractState&amp;gt; &lt;span style=&quot;color: #9876aa&quot;&gt;stateGroup&lt;/span&gt;&lt;/pre&gt;" style="text;strokeColor=none;fillColor=none;html=1;fontSize=24;fontStyle=1;verticalAlign=middle;align=center;fontColor=#191919;" parent="1" vertex="1">
          <mxGeometry x="240" y="185" width="260" height="20" as="geometry" />
        </mxCell>
        <mxCell id="I2U9jfFeghH5d3G4aHFH-37" value="" style="shape=singleArrow;direction=south;whiteSpace=wrap;html=1;fontSize=16;fontColor=#191919;fillColor=#FFFFFF;" parent="1" vertex="1">
          <mxGeometry x="370" y="430" width="30" height="40" as="geometry" />
        </mxCell>
        <mxCell id="I2U9jfFeghH5d3G4aHFH-38" value="活动状态流转示意图" style="text;html=1;align=center;verticalAlign=middle;resizable=0;points=[];autosize=1;strokeColor=none;fillColor=none;fontSize=16;fontColor=#191919;" parent="1" vertex="1">
          <mxGeometry x="305" y="470" width="160" height="20" as="geometry" />
        </mxCell>
        <mxCell id="I2U9jfFeghH5d3G4aHFH-39" value="编辑" style="rounded=0;whiteSpace=wrap;html=1;fontSize=16;fillColor=#dae8fc;strokeColor=#6c8ebf;" parent="1" vertex="1">
          <mxGeometry x="13" y="560" width="70" height="50" as="geometry" />
        </mxCell>
        <mxCell id="I2U9jfFeghH5d3G4aHFH-40" value="提审" style="rounded=0;whiteSpace=wrap;html=1;fontSize=16;fillColor=#ffe6cc;strokeColor=#d79b00;" parent="1" vertex="1">
          <mxGeometry x="143" y="560" width="70" height="50" as="geometry" />
        </mxCell>
        <mxCell id="I2U9jfFeghH5d3G4aHFH-41" value="撤审" style="rounded=0;whiteSpace=wrap;html=1;fontSize=16;fillColor=#f8cecc;strokeColor=#b85450;" parent="1" vertex="1">
          <mxGeometry x="243" y="560" width="70" height="50" as="geometry" />
        </mxCell>
        <mxCell id="I2U9jfFeghH5d3G4aHFH-42" value="通过" style="rounded=0;whiteSpace=wrap;html=1;fontSize=16;fillColor=#e1d5e7;strokeColor=#9673a6;" parent="1" vertex="1">
          <mxGeometry x="342" y="560" width="70" height="50" as="geometry" />
        </mxCell>
        <mxCell id="I2U9jfFeghH5d3G4aHFH-43" value="拒绝" style="rounded=0;whiteSpace=wrap;html=1;fontSize=16;fontColor=#333333;fillColor=#f5f5f5;strokeColor=#666666;" parent="1" vertex="1">
          <mxGeometry x="458" y="560" width="70" height="50" as="geometry" />
        </mxCell>
        <mxCell id="I2U9jfFeghH5d3G4aHFH-44" value="关闭" style="rounded=0;whiteSpace=wrap;html=1;fontSize=16;fontColor=#ffffff;fillColor=#6d8764;strokeColor=#3A5431;" parent="1" vertex="1">
          <mxGeometry x="588" y="560" width="70" height="50" as="geometry" />
        </mxCell>
        <mxCell id="I2U9jfFeghH5d3G4aHFH-45" value="开启" style="rounded=0;whiteSpace=wrap;html=1;fontSize=16;fontColor=#ffffff;fillColor=#60a917;strokeColor=#2D7600;" parent="1" vertex="1">
          <mxGeometry x="688" y="560" width="70" height="50" as="geometry" />
        </mxCell>
        <mxCell id="I2U9jfFeghH5d3G4aHFH-46" value="活动中" style="rounded=0;whiteSpace=wrap;html=1;fontSize=16;fontColor=#ffffff;fillColor=#d80073;strokeColor=#A50040;" parent="1" vertex="1">
          <mxGeometry x="787" y="560" width="70" height="50" as="geometry" />
        </mxCell>
        <mxCell id="I2U9jfFeghH5d3G4aHFH-47" value="" style="curved=1;endArrow=classic;html=1;rounded=0;fontSize=16;fontColor=#191919;" parent="1" edge="1">
          <mxGeometry width="50" height="50" relative="1" as="geometry">
            <mxPoint x="400" y="370" as="sourcePoint" />
            <mxPoint x="450" y="320" as="targetPoint" />
            <Array as="points">
              <mxPoint x="450" y="370" />
              <mxPoint x="400" y="320" />
            </Array>
          </mxGeometry>
        </mxCell>
        <mxCell id="I2U9jfFeghH5d3G4aHFH-48" value="" style="curved=1;endArrow=classic;html=1;rounded=0;fontSize=16;fontColor=#191919;" parent="1" edge="1">
          <mxGeometry width="50" height="50" relative="1" as="geometry">
            <mxPoint x="400" y="370" as="sourcePoint" />
            <mxPoint x="450" y="320" as="targetPoint" />
            <Array as="points">
              <mxPoint x="450" y="370" />
              <mxPoint x="400" y="320" />
            </Array>
          </mxGeometry>
        </mxCell>
        <mxCell id="I2U9jfFeghH5d3G4aHFH-49" value="" style="curved=1;endArrow=classic;html=1;rounded=0;fontSize=16;fontColor=#191919;entryX=0.5;entryY=1;entryDx=0;entryDy=0;" parent="1" source="I2U9jfFeghH5d3G4aHFH-39" target="I2U9jfFeghH5d3G4aHFH-44" edge="1">
          <mxGeometry width="50" height="50" relative="1" as="geometry">
            <mxPoint x="20" y="620" as="sourcePoint" />
            <mxPoint x="120" y="630" as="targetPoint" />
            <Array as="points">
              <mxPoint x="90" y="670" />
              <mxPoint x="100" y="680" />
              <mxPoint x="160" y="700" />
              <mxPoint x="170" y="720" />
              <mxPoint x="490" y="750" />
            </Array>
          </mxGeometry>
        </mxCell>
        <mxCell id="I2U9jfFeghH5d3G4aHFH-50" value="" style="curved=1;endArrow=classic;html=1;rounded=0;fontSize=16;fontColor=#191919;exitX=0.5;exitY=0;exitDx=0;exitDy=0;" parent="1" source="I2U9jfFeghH5d3G4aHFH-39" target="I2U9jfFeghH5d3G4aHFH-40" edge="1">
          <mxGeometry width="50" height="50" relative="1" as="geometry">
            <mxPoint x="140" y="540" as="sourcePoint" />
            <mxPoint x="190" y="490" as="targetPoint" />
            <Array as="points">
              <mxPoint x="40" y="480" />
              <mxPoint x="190" y="510" />
            </Array>
          </mxGeometry>
        </mxCell>
        <mxCell id="I2U9jfFeghH5d3G4aHFH-51" value="" style="curved=1;endArrow=classic;html=1;rounded=0;fontSize=16;fontColor=#191919;exitX=0.5;exitY=1;exitDx=0;exitDy=0;entryX=0.75;entryY=1;entryDx=0;entryDy=0;" parent="1" source="I2U9jfFeghH5d3G4aHFH-40" target="I2U9jfFeghH5d3G4aHFH-41" edge="1">
          <mxGeometry width="50" height="50" relative="1" as="geometry">
            <mxPoint x="250" y="700" as="sourcePoint" />
            <mxPoint x="300" y="650" as="targetPoint" />
            <Array as="points">
              <mxPoint x="178" y="640" />
              <mxPoint x="270" y="640" />
            </Array>
          </mxGeometry>
        </mxCell>
        <mxCell id="I2U9jfFeghH5d3G4aHFH-52" value="" style="curved=1;endArrow=classic;html=1;rounded=0;fontSize=16;fontColor=#191919;exitX=0.5;exitY=1;exitDx=0;exitDy=0;entryX=0.5;entryY=1;entryDx=0;entryDy=0;" parent="1" source="I2U9jfFeghH5d3G4aHFH-40" target="I2U9jfFeghH5d3G4aHFH-42" edge="1">
          <mxGeometry width="50" height="50" relative="1" as="geometry">
            <mxPoint x="188" y="620" as="sourcePoint" />
            <mxPoint x="305.5" y="620" as="targetPoint" />
            <Array as="points">
              <mxPoint x="188" y="650" />
              <mxPoint x="290" y="660" />
            </Array>
          </mxGeometry>
        </mxCell>
        <mxCell id="I2U9jfFeghH5d3G4aHFH-53" value="" style="curved=1;endArrow=classic;html=1;rounded=0;fontSize=16;fontColor=#191919;exitX=0.5;exitY=1;exitDx=0;exitDy=0;entryX=0.25;entryY=1;entryDx=0;entryDy=0;" parent="1" source="I2U9jfFeghH5d3G4aHFH-40" target="I2U9jfFeghH5d3G4aHFH-43" edge="1">
          <mxGeometry width="50" height="50" relative="1" as="geometry">
            <mxPoint x="188" y="620" as="sourcePoint" />
            <mxPoint x="387" y="620" as="targetPoint" />
            <Array as="points">
              <mxPoint x="198" y="660" />
              <mxPoint x="300" y="670" />
            </Array>
          </mxGeometry>
        </mxCell>
        <mxCell id="I2U9jfFeghH5d3G4aHFH-54" value="" style="curved=1;endArrow=classic;html=1;rounded=0;fontSize=16;fontColor=#191919;entryX=0.37;entryY=1.036;entryDx=0;entryDy=0;entryPerimeter=0;" parent="1" target="I2U9jfFeghH5d3G4aHFH-44" edge="1">
          <mxGeometry width="50" height="50" relative="1" as="geometry">
            <mxPoint x="180" y="610" as="sourcePoint" />
            <mxPoint x="485.5" y="620" as="targetPoint" />
            <Array as="points">
              <mxPoint x="208" y="670" />
              <mxPoint x="380" y="720" />
            </Array>
          </mxGeometry>
        </mxCell>
        <mxCell id="I2U9jfFeghH5d3G4aHFH-55" value="" style="curved=1;endArrow=classic;html=1;rounded=0;fontSize=16;fontColor=#191919;exitX=0.5;exitY=0;exitDx=0;exitDy=0;" parent="1" edge="1">
          <mxGeometry width="50" height="50" relative="1" as="geometry">
            <mxPoint x="378" y="560" as="sourcePoint" />
            <mxPoint x="512" y="560" as="targetPoint" />
            <Array as="points">
              <mxPoint x="370" y="480" />
              <mxPoint x="520" y="510" />
            </Array>
          </mxGeometry>
        </mxCell>
        <mxCell id="I2U9jfFeghH5d3G4aHFH-56" value="" style="curved=1;endArrow=classic;html=1;rounded=0;fontSize=16;fontColor=#191919;exitX=0.5;exitY=0;exitDx=0;exitDy=0;entryX=0.25;entryY=0;entryDx=0;entryDy=0;" parent="1" source="I2U9jfFeghH5d3G4aHFH-42" target="I2U9jfFeghH5d3G4aHFH-44" edge="1">
          <mxGeometry width="50" height="50" relative="1" as="geometry">
            <mxPoint x="388" y="570" as="sourcePoint" />
            <mxPoint x="522" y="570" as="targetPoint" />
            <Array as="points">
              <mxPoint x="380" y="530" />
              <mxPoint x="400" y="510" />
              <mxPoint x="600" y="460" />
            </Array>
          </mxGeometry>
        </mxCell>
        <mxCell id="I2U9jfFeghH5d3G4aHFH-57" value="" style="curved=1;endArrow=classic;html=1;rounded=0;fontSize=16;fontColor=#191919;exitX=0.5;exitY=0;exitDx=0;exitDy=0;entryX=0.25;entryY=0;entryDx=0;entryDy=0;" parent="1" source="I2U9jfFeghH5d3G4aHFH-42" target="I2U9jfFeghH5d3G4aHFH-46" edge="1">
          <mxGeometry width="50" height="50" relative="1" as="geometry">
            <mxPoint x="387" y="570" as="sourcePoint" />
            <mxPoint x="633" y="570" as="targetPoint" />
            <Array as="points">
              <mxPoint x="390" y="520" />
              <mxPoint x="400" y="490" />
              <mxPoint x="620" y="400" />
            </Array>
          </mxGeometry>
        </mxCell>
        <mxCell id="I2U9jfFeghH5d3G4aHFH-58" value="" style="curved=1;endArrow=classic;html=1;rounded=0;fontSize=16;fontColor=#191919;exitX=0.5;exitY=1;exitDx=0;exitDy=0;" parent="1" edge="1">
          <mxGeometry width="50" height="50" relative="1" as="geometry">
            <mxPoint x="490" y="610" as="sourcePoint" />
            <mxPoint x="600" y="610" as="targetPoint" />
            <Array as="points">
              <mxPoint x="490" y="640" />
              <mxPoint x="582" y="640" />
            </Array>
          </mxGeometry>
        </mxCell>
        <mxCell id="I2U9jfFeghH5d3G4aHFH-59" value="" style="curved=1;endArrow=classic;html=1;rounded=0;fontSize=16;fontColor=#191919;entryX=0.5;entryY=0;entryDx=0;entryDy=0;exitX=0.5;exitY=0;exitDx=0;exitDy=0;" parent="1" source="I2U9jfFeghH5d3G4aHFH-44" target="I2U9jfFeghH5d3G4aHFH-45" edge="1">
          <mxGeometry width="50" height="50" relative="1" as="geometry">
            <mxPoint x="620" y="550" as="sourcePoint" />
            <mxPoint x="750" y="560" as="targetPoint" />
            <Array as="points">
              <mxPoint x="616" y="510" />
              <mxPoint x="740" y="520" />
            </Array>
          </mxGeometry>
        </mxCell>
        <mxCell id="I2U9jfFeghH5d3G4aHFH-60" value="" style="curved=1;endArrow=classic;html=1;rounded=0;fontSize=16;fontColor=#191919;entryX=0.75;entryY=0;entryDx=0;entryDy=0;" parent="1" target="I2U9jfFeghH5d3G4aHFH-46" edge="1">
          <mxGeometry width="50" height="50" relative="1" as="geometry">
            <mxPoint x="734" y="560" as="sourcePoint" />
            <mxPoint x="837" y="570" as="targetPoint" />
            <Array as="points">
              <mxPoint x="730" y="520" />
              <mxPoint x="854" y="530" />
            </Array>
          </mxGeometry>
        </mxCell>
        <mxCell id="I2U9jfFeghH5d3G4aHFH-61" value="" style="curved=1;endArrow=classic;html=1;rounded=0;fontSize=16;fontColor=#191919;" parent="1" source="I2U9jfFeghH5d3G4aHFH-45" edge="1">
          <mxGeometry width="50" height="50" relative="1" as="geometry">
            <mxPoint x="680" y="710" as="sourcePoint" />
            <mxPoint x="640" y="610" as="targetPoint" />
            <Array as="points">
              <mxPoint x="720" y="650" />
              <mxPoint x="670" y="650" />
              <mxPoint x="650" y="640" />
            </Array>
          </mxGeometry>
        </mxCell>
        <mxCell id="I2U9jfFeghH5d3G4aHFH-62" style="edgeStyle=orthogonalEdgeStyle;rounded=0;orthogonalLoop=1;jettySize=auto;html=1;exitX=0.5;exitY=1;exitDx=0;exitDy=0;entryX=0.874;entryY=1.083;entryDx=0;entryDy=0;entryPerimeter=0;fontSize=16;fontColor=#191919;endArrow=open;endFill=0;" parent="1" source="I2U9jfFeghH5d3G4aHFH-44" target="I2U9jfFeghH5d3G4aHFH-44" edge="1">
          <mxGeometry relative="1" as="geometry" />
        </mxCell>
      </root>
    </mxGraphModel>
  </diagram>
</mxfile>
